<?xml version="1.0" encoding="utf-8"?>
<!-- Generator: Adobe Illustrator 22.1.0, SVG Export Plug-In . SVG Version: 6.00 Build 0)  -->
<svg version="1.1" id="sponsorlogo" xmlns="http://www.w3.org/2000/svg" xmlns:xlink="http://www.w3.org/1999/xlink" x="0px"
	 y="0px" viewBox="0 0 1083.9 340.2" style="enable-background:new 0 0 1083.9 340.2;" xml:space="preserve">
<style type="text/css">
	.st0{fill:#EC0000;}
</style>
<polygon class="st0" points="0,320.2 30,290.2 0,260.2 20,240.2 50,270.2 80,240.2 100,260.2 70,290.2 100,320.2 80,340.2 50,310.2 
	20,340.2 "/>
<polygon class="st0" points="0,80 30,50 0,20 20,0 50,30 80,0 100,20 70,50 100,80 80,100 50,70 20,100 "/>
<polygon class="st0" points="0,200.2 30,170.2 0,140.2 20,120.2 50,150.2 80,120.2 100,140.2 70,170.2 100,200.2 80,220.2 50,190.2 
	20,220.2 "/>
<g>
	<path class="st0" d="M290.2,131c-14.7,7.9-31.5,12-50.2,12c-37.3,0-64-25.3-64-63.2c0-38.9,26.7-64.2,64-64.2
		c18.5,0,35.1,3.9,47.8,15.2L271.8,47c-7.7-7.5-19.5-11.8-31.7-11.8c-25,0-41.6,19.2-41.6,43.3c0,25.8,16.6,45,41.6,45
		c11,0,20.9-2.1,28.4-6.3V88.6h-24.8V69h46.4V131z"/>
	<path class="st0" d="M330.2,106c1.4,12.2,10.6,19.5,22.1,19.5c10.3,0,16.9-4.8,22.1-11.1l14.7,11.1c-9.6,11.8-21.7,16.4-34.8,16.4
		c-24.8,0-44.7-17.3-44.7-43.1c0-25.8,19.9-43.1,44.7-43.1c22.9,0,38.5,16.1,38.5,44.7v5.6H330.2z M372.3,90.6
		c-0.2-12-8-19.5-20.9-19.5c-12.2,0-19.7,7.7-21.2,19.5H372.3z"/>
	<path class="st0" d="M411.2,57.7h19.5v12.8h0.3c3.6-7.7,11.5-14.9,25.2-14.9c12.7,0,21.4,5,25.7,15.2c6-10.4,14.7-15.2,27-15.2
		c21.9,0,29.6,15.6,29.6,35.3v49H518V93.4c0-10.3-3.1-19.2-15.2-19.2c-12.8,0-17.6,10.6-17.6,21.2v44.5h-20.5V91
		c0-10.1-4.1-16.8-14-16.8c-13.5,0-18.8,9.9-18.8,20.9v44.8h-20.5V57.7z"/>
	<path class="st0" d="M577.4,106c1.4,12.2,10.6,19.5,22.1,19.5c10.3,0,16.9-4.8,22.1-11.1l14.7,11.1c-9.6,11.8-21.7,16.4-34.8,16.4
		c-24.8,0-44.7-17.3-44.7-43.1c0-25.8,19.9-43.1,44.7-43.1c22.9,0,38.5,16.1,38.5,44.7v5.6H577.4z M619.5,90.6
		c-0.2-12-8-19.5-20.9-19.5c-12.2,0-19.7,7.7-21.2,19.5H619.5z"/>
	<path class="st0" d="M675.7,106c1.4,12.2,10.6,19.5,22.1,19.5c10.3,0,16.9-4.8,22.1-11.1l14.7,11.1c-9.6,11.8-21.7,16.4-34.7,16.4
		c-24.8,0-44.7-17.3-44.7-43.1c0-25.8,19.9-43.1,44.7-43.1c22.9,0,38.5,16.1,38.5,44.7v5.6H675.7z M717.8,90.6
		c-0.2-12-8-19.5-20.9-19.5c-12.2,0-19.7,7.7-21.2,19.5H717.8z"/>
	<path class="st0" d="M757.5,57.7H777v13.2h0.3c3.8-8.2,11.5-15.2,25.2-15.2c22.1,0,30,15.6,30,32.4v51.9h-20.5V98.3
		c0-9.1-0.7-24.1-15.1-24.1c-13.5,0-18.8,9.9-18.8,20.9v44.8h-20.5V57.7z"/>
	<path class="st0" d="M846.2,75.2V57.7h16.9V34h20.5v23.8h22.6v17.5h-22.6v35.9c0,8.2,2.4,13.4,11.5,13.4c3.6,0,8.6-0.7,11.1-2.6
		v17.3c-4.3,2.1-11.5,2.7-16.3,2.7c-21.7,0-26.9-9.8-26.9-29.1V75.2H846.2z"/>
	<path class="st0" d="M938.8,106c1.4,12.2,10.6,19.5,22.1,19.5c10.3,0,16.9-4.8,22.1-11.1l14.7,11.1c-9.6,11.8-21.7,16.4-34.8,16.4
		c-24.8,0-44.7-17.3-44.7-43.1c0-25.8,19.9-43.1,44.7-43.1c22.9,0,38.5,16.1,38.5,44.7v5.6H938.8z M980.9,90.6
		c-0.2-12-8-19.5-20.9-19.5c-12.2,0-19.7,7.7-21.2,19.5H980.9z"/>
</g>
<g>
	<path class="st0" d="M221.7,199h18.7l52.2,121.2h-24.6l-11.3-27.7h-52.6l-11,27.7H169L221.7,199z M249.1,273.9l-18.7-49.3l-19,49.3
		H249.1z"/>
	<path class="st0" d="M303.3,238h19.5v12.8h0.3c3.6-7.7,11.5-14.9,25.2-14.9c12.7,0,21.4,5,25.7,15.2c6-10.4,14.7-15.2,27.1-15.2
		c21.9,0,29.6,15.6,29.6,35.3v49h-20.5v-46.6c0-10.3-3.1-19.2-15.2-19.2c-12.8,0-17.6,10.6-17.6,21.2v44.5h-20.5v-49
		c0-10.1-4.1-16.8-14-16.8c-13.5,0-18.8,9.9-18.8,20.9v44.8h-20.5V238z"/>
	<path class="st0" d="M496.9,260.7c-3.9-5.5-9.1-8.4-16.1-8.4c-5.5,0-12,2.6-12,8.7c0,14.7,44.3,2.7,44.3,34.7
		c0,19.5-18.7,26.4-35.4,26.4c-12.7,0-23.6-3.3-32-12.7l13.7-12.8c5.3,5.8,10.8,10.1,19.5,10.1c6,0,13.7-2.9,13.7-9.4
		c0-16.9-44.3-3.6-44.3-34.9c0-18.3,16.4-26.5,33-26.5c11,0,22.6,3.4,29.3,12.5L496.9,260.7z"/>
	<path class="st0" d="M519.5,255.4V238h16.9v-23.8H557V238h22.6v17.5H557v36c0,8.2,2.4,13.3,11.5,13.3c3.6,0,8.6-0.7,11.1-2.6v17.3
		c-4.3,2.1-11.5,2.7-16.3,2.7c-21.7,0-26.9-9.8-26.9-29.1v-37.7H519.5z"/>
	<path class="st0" d="M612.1,286.3c1.4,12.2,10.6,19.5,22.1,19.5c10.3,0,16.9-4.8,22.1-11.1l14.7,11.1
		c-9.6,11.8-21.7,16.4-34.8,16.4c-24.8,0-44.7-17.3-44.7-43.1c0-25.8,19.9-43.1,44.7-43.1c22.9,0,38.5,16.1,38.5,44.7v5.7H612.1z
		 M654.3,270.8c-0.2-12-8-19.5-20.9-19.5c-12.2,0-19.7,7.7-21.2,19.5H654.3z"/>
	<path class="st0" d="M694,238h20.5v13h0.3c4.4-9.4,13.5-15.1,24.3-15.1c2.6,0,5,0.5,7.4,1.2V257c-3.4-0.9-6.7-1.5-9.9-1.5
		c-19.3,0-22.1,16.3-22.1,20.7v44H694V238z"/>
	<path class="st0" d="M822.7,307.8h-0.3c-6,9.9-16.8,14.4-28.2,14.4c-25.3,0-40.6-18.8-40.6-43.1c0-24.3,16.3-43.1,39.7-43.1
		c15.4,0,23.6,7.2,27.9,12.5h0.5v-57.7h20.5v129.4h-19.5V307.8z M798.2,303.7c15.1,0,24.1-11.8,24.1-24.7c0-12.8-9.1-24.6-24.1-24.6
		s-24.1,11.8-24.1,24.6C774.1,291.9,783.2,303.7,798.2,303.7z"/>
	<path class="st0" d="M916.8,308.8h-0.5c-5.8,9.2-15.4,13.4-26.4,13.4c-15.2,0-30-8.4-30-24.6c0-26.7,31.2-28.6,51.7-28.6h5.1v-2.2
		c0-10.1-7.9-15.4-18.8-15.4c-8.6,0-16.4,3.4-21.9,8.6l-10.8-10.8c9.1-9.2,21.9-13.2,34.9-13.2c35.1,0,35.1,25.3,35.1,37v47.2h-18.5
		V308.8z M915.6,283.3h-4.3c-11.3,0-30.8,0.9-30.8,12.7c0,7.5,7.7,10.8,14.4,10.8c14,0,20.7-7.4,20.7-18.8V283.3z"/>
	<path class="st0" d="M956.6,238h19.5v12.8h0.3c3.6-7.7,11.5-14.9,25.2-14.9c12.7,0,21.4,5,25.7,15.2c6-10.4,14.7-15.2,27-15.2
		c21.9,0,29.6,15.6,29.6,35.3v49h-20.5v-46.6c0-10.3-3.1-19.2-15.2-19.2c-12.8,0-17.6,10.6-17.6,21.2v44.5H1010v-49
		c0-10.1-4.1-16.8-14-16.8c-13.5,0-18.8,9.9-18.8,20.9v44.8h-20.5V238z"/>
</g>
</svg>
